<svg width="159" height="159" xmlns="http://www.w3.org/2000/svg" preserveAspectRatio="xMidYMid meet" version="1.0">

 <g>
  <title>Layer 1</title>
  <g id="svg_1" fill="#000000" transform="translate(0, 159) scale(0.1, -0.1)">
   <path fill="#ffffff" id="svg_2" d="m397,1194.96054c-131,-132 -131,-129 8,-272c58,-59 105,-113 105,-120c0,-6 -47,-61 -105,-120c-140,-146 -140,-147 -11,-276c84,-85 97,-94 131,-94c34,0 47,9 145,105c59,58 113,105 120,105c7,0 61,-47 120,-105c99,-96 111,-105 146,-105c34,0 46,8 131,93c85,85 93,97 93,131c0,35 -9,47 -105,146c-58,59 -105,113 -105,120c0,7 47,61 105,120c139,143 139,141 7,273c-131,130 -128,131 -272,-8c-59,-58 -114,-105 -120,-105c-7,0 -61,47 -120,105c-143,139 -141,139 -273,7zm163,-77c47,-8 87,-15 90,-15c2,0 -31,-36 -75,-80c-43,-44 -80,-78 -82,-76c-3,3 -33,164 -33,179c0,9 2,9 100,-8zm555,-27c-3,-24 -11,-67 -17,-97l-10,-54l-79,79c-43,43 -77,80 -75,81c4,5 143,30 169,32c16,1 18,-4 12,-41zm-266,-176c38,-20 71,-73 71,-112c0,-39 -33,-92 -71,-112c-43,-23 -75,-23 -119,0c-74,41 -88,130 -29,197c42,47 93,56 148,27zm-212,-413c-17,-9 -168,-32 -173,-26c-5,4 6,76 22,161l6,28l79,-78c51,-51 74,-81 66,-85zm472,52c6,-41 10,-76 8,-78c-4,-4 -118,12 -166,23c-23,5 -19,10 55,85c89,89 84,91 103,-30z"/>
  </g>
 </g>
</svg>