<svg class="svg-icon" style="width: 1em; height: 1em;vertical-align: middle;fill: currentColor;overflow: hidden;" viewBox="0 0 1024 1024" version="1.1" xmlns="http://www.w3.org/2000/svg"><path d="M630.575394 543.0741a288.940955 288.940955 0 0 0 152.11856-254.313808A289.061397 289.061397 0 0 0 493.993884 0a289.061397 289.061397 0 0 0-288.760292 288.760292 288.820513 288.820513 0 0 0 158.261115 257.264643C170.666667 605.643849 30.231004 785.403905 30.231004 997.502705a26.196189 26.196189 0 1 0 52.512821 0A420.463891 420.463891 0 0 1 502.725947 577.520583a420.463891 420.463891 0 0 1 420.042343 419.982122 26.196189 26.196189 0 1 0 52.452599 0c0-216.193837-146.096448-398.48318-344.645495-454.428605zM257.686191 288.760292A236.488356 236.488356 0 0 1 493.993884 52.512821a236.488356 236.488356 0 0 1 236.247471 236.247471A236.488356 236.488356 0 0 1 493.933663 525.007763a236.488356 236.488356 0 0 1-236.307693-236.247471z"  /></svg>